/* XPM */
static char *c9ea9b3ce453483bc9c03217151d54f0uyYzS3hrrRwNgVDC[] = {
/* columns rows colors chars-per-pixel */
"31 32 70 1 ",
"  c #549ED7",
". c #549FD7",
"X c #559FD8",
"o c #54A6D6",
"O c #55A7D6",
"+ c #57A9D7",
"@ c #54AED5",
"# c #55AFD6",
"$ c #55A0D8",
"% c #57A1D8",
"& c #58A2D9",
"* c #58A4D9",
"= c #59A5DA",
"- c #5BA6DB",
"; c #5BA7DB",
": c #58AAD8",
"> c #5BA8DB",
", c #5CA8DB",
"< c #59ACD9",
"1 c #5BAEDA",
"2 c #5EAADC",
"3 c #5EACDE",
"4 c #56B0D6",
"5 c #57B1D7",
"6 c #58B2D7",
"7 c #58B2D8",
"8 c #5AB4D8",
"9 c #5AB4D9",
"0 c #5BB5D9",
"q c #5FB3DE",
"w c #5DB8DB",
"e c #5EB8DB",
"r c #5FBADC",
"t c #60ABDE",
"y c #60ADDE",
"u c #60AEDF",
"i c #63AFDF",
"p c #60B2DC",
"a c #63B0DF",
"s c #61B4DC",
"d c #62B4DE",
"f c #64B7DF",
"g c #60B9DB",
"h c #61BADB",
"j c #61BBDC",
"k c #62BCDC",
"l c #64BDDF",
"z c #63AFE0",
"x c #62B0E0",
"c c #65B3E1",
"v c #65B3E2",
"b c #65B4E2",
"n c #65B6E2",
"m c #68B7E3",
"M c #63B8E0",
"N c #65BAE1",
"B c #66BCE1",
"V c #64BFE0",
"C c #68B8E3",
"Z c #69B8E4",
"A c #6BBBE5",
"S c #6CBCE5",
"D c #6CBDE6",
"F c #65C0DF",
"G c #65C0E0",
"H c #68C3E1",
"J c #6AC5E3",
"K c #6AC7E3",
"L c #6CC2E5",
"P c #6DCAE5",
/* pixels */
"$=GKAA=&yOXttjjlVa9n====nN,=$ ,",
"+wnnSny&Oyty @X,SSAKza,=cjlzidf",
"$3GGnS25,y  @@ cyacPSSmfz  @@  ",
"z,xSKGfj@@O:+@y$>tyLll8&XtXOOO ",
"$yc,9&X ztX&&h@$$=Vn2;&@@rOX 9$",
"$jjjXX$ $$zGKnkhqjzyXX $@2zznj1",
"jX k $$&$$Vjc,$$..O2y$$ j.$,dLG",
"&X&kk=,KVj,yc,$$.rwOa33h@oX=tcG",
"&==iclSn,a99965@rr  .@@.2X@911c",
"2ty2N,3dta3 5y2y  @@o..zy22@.yy",
"ASSSw9;=$. jw   322zjVzz&XXkh:1",
"ySnjy=9:+od.O$   $z=2jz2ZNd $ &",
"jLLLG9:O5@wh  O $23qVNMVGhhh .$",
"nuzr,xX .2X@tyhjdohKNNxxx,=a+.1",
"cc-9=yzy2ytyhjtyyy =Jcy==xythhh",
"Xcz7jdO X3@@ @$&&3.9Gnxcyxty O ",
"$$dd2. @@jXXX92y,&yy++....,$4+$",
"@@@j$$ :Xyt;z9jjmt y @@.$aa@@Oo",
" $yt@@@ 22..@MKL1$ y@OO:@.,to..",
"y,tyy,hhjj.@oz==6@+d3,. $o$1,O.",
"X t@@@O XX9yy $$$ hwytt $$qjhhk",
"6OOaOOXXXXX@whtt+d3$@@psww$X*,h",
"yy,atX:4Xtzy,+O@h6@4@$  ysXX:yF",
"$ $$tizVNVjaOo@+.3ah  tt$ jzzAK",
"$$$ a=,hr2=$NrO X;2nzyyytty@911",
"y $$y1dazz2=XhhlcSSmnj@X&y O@& ",
"@whhk9ynnz295yy@8aKHy$X98l86:  ",
"$dt -VaVVVwc3$ $$99cyd&2,dlny$ ",
"2j2XX=mALHci$@@O+h3$$ccnAAhy=yy",
"j@X.$==x9w=iyhtt3+ X$X>ASnFww& ",
"tX@..+9k666 $@ty.$@wzzcAGNa,16@",
"yyc599zz$$@@OOyy$$1d@99Nrzy,& :"
};
